<svg width="32" height="32" viewBox="0 0 32 32" fill="none" xmlns="http://www.w3.org/2000/svg">
<path d="M15.1102 20.7287C15.6869 21.0028 16.3567 21.0028 16.9336 20.7287L21.2865 18.6364L26.7672 16.0014L30.2771 14.3149C30.6407 14.1389 30.8717 13.7704 30.8717 13.3664C30.8717 12.9624 30.6407 12.5939 30.2771 12.4179L26.7682 10.7314L16.9346 15.4564C16.3577 15.7335 15.6861 15.7335 15.1089 15.4564L5.2753 10.7314L1.76644 12.4179C1.40285 12.5939 1.17203 12.9624 1.17203 13.3664C1.17203 13.7704 1.40285 14.1389 1.76644 14.3149L5.27633 16.0014L10.7571 18.6364L15.1102 20.7287Z" fill="#F4E2E3"></path>
<path d="M16.9336 25.9987L26.7672 21.2714L30.2771 19.5849C30.6407 19.4089 30.8717 19.0405 30.8717 18.6365C30.8717 18.2325 30.6407 17.864 30.2771 17.688L26.7672 16.0015L21.2865 18.6365L16.9336 20.7287C16.3567 21.0028 15.6869 21.0028 15.1102 20.7287L10.7571 18.6365L5.27633 16.0015L1.76644 17.688C1.40285 17.864 1.17203 18.2325 1.17203 18.6365C1.17203 19.0405 1.40285 19.4089 1.76644 19.5849L5.27633 21.2714L15.1102 25.9987C15.6869 26.2728 16.3567 26.2728 16.9336 25.9987Z" fill="#F4E2E3"></path>
<path d="M1.76644 24.855L15.1102 31.2687C15.6869 31.5428 16.3567 31.5428 16.9336 31.2687L30.2771 24.855C30.6407 24.679 30.8717 24.3105 30.8717 23.9065C30.8717 23.5025 30.6407 23.134 30.2771 22.958L26.7672 21.2715L16.9336 25.9988C16.3567 26.2728 15.6869 26.2728 15.1102 25.9988L5.27633 21.2715L1.76644 22.958C1.40285 23.134 1.17203 23.5025 1.17203 23.9065C1.17203 24.3105 1.40285 24.679 1.76644 24.855Z" fill="#F4E2E3"></path>
<path d="M31.4011 18.6366C31.4047 18.0282 31.0552 17.4732 30.5053 17.2136L27.9846 16.0016L30.5038 14.7896C31.049 14.5253 31.3954 13.9726 31.3954 13.3666C31.3954 12.7606 31.049 12.2079 30.5038 11.9436L27.9846 10.7316L30.5038 9.5196C31.0513 9.25636 31.3998 8.70234 31.3998 8.09455C31.3998 7.48675 31.0513 6.93273 30.5038 6.66949L17.1626 0.261119C16.4418 -0.0870395 15.6012 -0.0870395 14.8804 0.261119L1.53999 6.67361C0.992153 6.93685 0.643738 7.49087 0.643738 8.09867C0.643738 8.70646 0.992153 9.26048 1.53999 9.52372L4.05893 10.7316L1.53999 11.9436C0.994469 12.2079 0.648112 12.7606 0.648112 13.3666C0.648112 13.9726 0.994469 14.5253 1.53999 14.7896L4.05893 16.0016L1.53999 17.2136C0.994469 17.4778 0.648112 18.0306 0.648112 18.6366C0.648112 19.2426 0.994469 19.7953 1.53999 20.0596L4.05893 21.2715L1.53999 22.4835C0.994469 22.7478 0.648112 23.3005 0.648112 23.9065C0.648112 24.5125 0.994469 25.0653 1.53999 25.3295L14.883 31.7446C15.6045 32.085 16.4405 32.085 17.1621 31.7446L30.5038 25.3295C31.049 25.0653 31.3954 24.5125 31.3954 23.9065C31.3954 23.3005 31.049 22.7478 30.5038 22.4835L27.9846 21.2715L30.5038 20.0596C31.0539 19.7999 31.4041 19.2451 31.4011 18.6366ZM1.69748 8.09661C1.6949 7.89358 1.81198 7.70779 1.99623 7.62236L15.3366 1.21141C15.7694 1.00169 16.2741 1.00169 16.7069 1.21141L30.0468 7.62236C30.2287 7.71036 30.344 7.89461 30.344 8.09661C30.344 8.2986 30.2287 8.48285 30.0468 8.57085L16.7069 14.9818C16.2741 15.1913 15.7694 15.1913 15.3366 14.9818L1.99623 8.57085C1.81198 8.48542 1.6949 8.29989 1.69748 8.09661ZM1.69748 13.3666C1.69542 13.1638 1.81198 12.9783 1.99571 12.8923L5.27633 11.3155L14.8819 15.9311C15.6027 16.2795 16.4434 16.2795 17.1644 15.9311L26.7682 11.3165L30.0498 12.8923C30.2302 12.9809 30.3445 13.1643 30.3445 13.3653C30.3445 13.5663 30.2302 13.7497 30.0498 13.8383L16.7069 20.2528C16.273 20.4576 15.7705 20.4576 15.3366 20.2528L1.99314 13.8408C1.80993 13.7544 1.69387 13.5691 1.69645 13.3666H1.69748ZM30.0498 23.4323C30.2336 23.5188 30.3507 23.7035 30.3507 23.9065C30.3507 24.1096 30.2336 24.2943 30.0498 24.3808L16.7069 30.7928C16.273 30.9976 15.7705 30.9976 15.3366 30.7928L1.99314 24.3808C1.81121 24.2928 1.69567 24.1085 1.69567 23.9065C1.69567 23.7045 1.81121 23.5203 1.99314 23.4323L5.27427 21.8554L14.8814 26.4736C15.603 26.814 16.439 26.814 17.1605 26.4736L26.7677 21.8564L30.0498 23.4323ZM30.0498 19.1108L16.7069 25.5228C16.273 25.7276 15.7705 25.7276 15.3366 25.5228L1.99314 19.1108C1.81121 19.0228 1.69567 18.8386 1.69567 18.6366C1.69567 18.4346 1.81121 18.2503 1.99314 18.1623L5.27427 16.5854L14.8814 21.2036C15.603 21.5441 16.439 21.5441 17.1605 21.2036L26.7677 16.5865L30.0498 18.1623C30.2318 18.2503 30.3473 18.4346 30.3473 18.6366C30.3473 18.8386 30.2318 19.0228 30.0498 19.1108Z" fill="#931115"></path>
</svg>