<svg width="32" height="32" viewBox="0 0 32 32" fill="none" xmlns="http://www.w3.org/2000/svg">
<path d="M29.5 13H26.7755C26.5755 13.0008 26.3801 12.9404 26.2155 12.8267C26.0509 12.7131 25.9251 12.5518 25.855 12.3645C25.761 12.1082 25.657 11.8568 25.543 11.6105C25.4596 11.4268 25.4343 11.2219 25.4706 11.0235C25.5069 10.825 25.603 10.6423 25.746 10.5L27.665 8.575C27.7588 8.4826 27.8333 8.37247 27.8842 8.25101C27.935 8.12954 27.9612 7.99918 27.9612 7.8675C27.9612 7.73582 27.935 7.60546 27.8842 7.48399C27.8333 7.36253 27.7588 7.2524 27.665 7.16L24.84 4.335C24.7476 4.24118 24.6375 4.16667 24.516 4.11582C24.3945 4.06496 24.2642 4.03877 24.1325 4.03877C24.0008 4.03877 23.8705 4.06496 23.749 4.11582C23.6275 4.16667 23.5174 4.24118 23.425 4.335L21.5 6.254C21.3575 6.39744 21.1745 6.49379 20.9756 6.53009C20.7767 6.56638 20.5715 6.54087 20.3875 6.457C20.1435 6.34433 19.8945 6.24117 19.6405 6.1475C19.4515 6.07619 19.2889 5.94878 19.1744 5.78236C19.0599 5.61595 18.999 5.41849 19 5.2165V2.5C18.9992 2.23503 18.8936 1.98113 18.7062 1.79377C18.5189 1.6064 18.265 1.50079 18 1.5H14C13.7348 1.5 13.4804 1.60536 13.2929 1.79289C13.1054 1.98043 13 2.23478 13 2.5V5.224C13.0009 5.42459 12.9403 5.62062 12.8263 5.78567C12.7123 5.95072 12.5504 6.07683 12.3625 6.147C12.107 6.241 11.8565 6.347 11.6125 6.4585C11.4284 6.54219 11.2231 6.56745 11.0241 6.53089C10.8252 6.49432 10.6423 6.39769 10.5 6.254L8.575 4.335C8.4826 4.24118 8.37247 4.16667 8.25101 4.11582C8.12954 4.06496 7.99918 4.03877 7.8675 4.03877C7.73582 4.03877 7.60546 4.06496 7.48399 4.11582C7.36253 4.16667 7.2524 4.24118 7.16 4.335L4.335 7.16C4.24118 7.2524 4.16667 7.36253 4.11582 7.48399C4.06496 7.60546 4.03877 7.73582 4.03877 7.8675C4.03877 7.99918 4.06496 8.12954 4.11582 8.25101C4.16667 8.37247 4.24118 8.4826 4.335 8.575L6.254 10.5C6.39744 10.6425 6.49379 10.8255 6.53009 11.0244C6.56638 11.2233 6.54087 11.4285 6.457 11.6125C6.34433 11.8565 6.24117 12.1055 6.1475 12.3595C6.07619 12.5485 5.94878 12.7111 5.78236 12.8256C5.61595 12.9401 5.41849 13.001 5.2165 13H2.5C2.23503 13.0008 1.98113 13.1064 1.79377 13.2938C1.6064 13.4811 1.50079 13.735 1.5 14V18C1.5 18.2652 1.60536 18.5196 1.79289 18.7071C1.98043 18.8946 2.23478 19 2.5 19H5.219C5.42111 18.9992 5.61861 19.0603 5.7849 19.1752C5.95118 19.2901 6.07826 19.4532 6.149 19.6425C6.24233 19.8962 6.3455 20.1452 6.4585 20.3895C6.54174 20.5734 6.56676 20.7783 6.5302 20.9768C6.49365 21.1753 6.39727 21.3578 6.254 21.5L4.335 23.425C4.24118 23.5174 4.16667 23.6275 4.11582 23.749C4.06496 23.8705 4.03877 24.0008 4.03877 24.1325C4.03877 24.2642 4.06496 24.3945 4.11582 24.516C4.16667 24.6375 4.24118 24.7476 4.335 24.84L7.16 27.665C7.2524 27.7588 7.36253 27.8333 7.48399 27.8842C7.60546 27.935 7.73582 27.9612 7.8675 27.9612C7.99918 27.9612 8.12954 27.935 8.25101 27.8842C8.37247 27.8333 8.4826 27.7588 8.575 27.665L10.5 25.746C10.6425 25.6026 10.8255 25.5062 11.0244 25.4699C11.2233 25.4336 11.4285 25.4591 11.6125 25.543C11.8565 25.6557 12.1055 25.7588 12.3595 25.8525C12.5485 25.9238 12.7111 26.0512 12.8256 26.2176C12.9401 26.3841 13.001 26.5815 13 26.7835V29.5C13.0008 29.765 13.1064 30.0189 13.2938 30.2062C13.4811 30.3936 13.735 30.4992 14 30.5H18C18.2652 30.5 18.5196 30.3946 18.7071 30.2071C18.8946 30.0196 19 29.7652 19 29.5V26.78C18.9991 26.5786 19.0599 26.3818 19.1744 26.2162C19.2888 26.0505 19.4513 25.9239 19.64 25.8535C19.8947 25.7595 20.1447 25.656 20.39 25.543C20.5737 25.4597 20.7784 25.4345 20.9768 25.4708C21.1752 25.507 21.3577 25.6031 21.5 25.746L23.425 27.665C23.5174 27.7588 23.6275 27.8333 23.749 27.8842C23.8705 27.935 24.0008 27.9612 24.1325 27.9612C24.2642 27.9612 24.3945 27.935 24.516 27.8842C24.6375 27.8333 24.7476 27.7588 24.84 27.665L27.665 24.84C27.7588 24.7476 27.8333 24.6375 27.8842 24.516C27.935 24.3945 27.9612 24.2642 27.9612 24.1325C27.9612 24.0008 27.935 23.8705 27.8842 23.749C27.8333 23.6275 27.7588 23.5174 27.665 23.425L25.746 21.5C25.6026 21.3575 25.5062 21.1745 25.4699 20.9756C25.4336 20.7767 25.4591 20.5715 25.543 20.3875C25.6557 20.1435 25.7588 19.8945 25.8525 19.6405C25.9238 19.4515 26.0512 19.2889 26.2176 19.1744C26.3841 19.0599 26.5815 18.999 26.7835 19H29.5C29.765 18.9992 30.0189 18.8936 30.2062 18.7062C30.3936 18.5189 30.4992 18.265 30.5 18V14C30.5 13.7348 30.3946 13.4804 30.2071 13.2929C30.0196 13.1054 29.7652 13 29.5 13ZM16 22.5C14.7144 22.5 13.4577 22.1188 12.3888 21.4046C11.3199 20.6903 10.4868 19.6752 9.99478 18.4874C9.50281 17.2997 9.37409 15.9928 9.6249 14.7319C9.8757 13.471 10.4948 12.3128 11.4038 11.4038C12.3128 10.4948 13.471 9.8757 14.7319 9.6249C15.9928 9.37409 17.2997 9.50281 18.4874 9.99478C19.6752 10.4868 20.6903 11.3199 21.4046 12.3888C22.1188 13.4577 22.5 14.7144 22.5 16C22.498 17.7233 21.8126 19.3754 20.594 20.594C19.3754 21.8126 17.7233 22.498 16 22.5Z" fill="#F4E2E3"></path>
<path d="M18 31H14C13.6022 31 13.2206 30.842 12.9393 30.5607C12.658 30.2794 12.5 29.8978 12.5 29.5V26.7835C12.5006 26.6836 12.4707 26.5859 12.4143 26.5035C12.358 26.421 12.2778 26.3577 12.1845 26.322C11.925 26.226 11.661 26.1165 11.4015 25.997C11.3102 25.9564 11.2087 25.9445 11.1105 25.9629C11.0122 25.9813 10.9219 26.0291 10.8515 26.1L8.9285 28.019C8.79003 28.1596 8.62491 28.2711 8.44282 28.3471C8.26073 28.423 8.06531 28.4619 7.868 28.4615C7.67008 28.4617 7.4741 28.4225 7.29156 28.346C7.10903 28.2695 6.9436 28.1573 6.805 28.016L3.9815 25.1935C3.84077 25.0547 3.72903 24.8893 3.65275 24.707C3.57648 24.5246 3.53721 24.3289 3.53721 24.1313C3.53721 23.9336 3.57648 23.7379 3.65275 23.5555C3.72903 23.3732 3.84077 23.2078 3.9815 23.069L5.9 21.15C5.97119 21.0798 6.01921 20.9894 6.03762 20.8911C6.05603 20.7928 6.04395 20.6912 6.003 20.6C5.88567 20.3433 5.77733 20.0822 5.678 19.8165C5.64275 19.7232 5.57976 19.643 5.49752 19.5865C5.41528 19.5301 5.31773 19.5003 5.218 19.501H2.5C2.10218 19.501 1.72064 19.343 1.43934 19.0617C1.15804 18.7804 1 18.3988 1 18.001V14C1 13.6022 1.15804 13.2206 1.43934 12.9393C1.72064 12.658 2.10218 12.5 2.5 12.5H5.2165C5.31637 12.5008 5.41412 12.4711 5.49661 12.4148C5.5791 12.3585 5.6424 12.2783 5.678 12.185C5.778 11.9183 5.88633 11.6572 6.003 11.4015C6.04388 11.3102 6.05592 11.2087 6.03752 11.1104C6.01911 11.0121 5.97113 10.9218 5.9 10.8515L3.981 8.928C3.84041 8.78917 3.72878 8.62381 3.65259 8.44151C3.5764 8.2592 3.53717 8.06358 3.53717 7.866C3.53717 7.66842 3.5764 7.4728 3.65259 7.29049C3.72878 7.10819 3.84041 6.94283 3.981 6.804L6.804 3.9815C6.94243 3.84085 7.10753 3.72923 7.28962 3.65317C7.47172 3.5771 7.66716 3.53812 7.8645 3.5385C8.06247 3.53809 8.25853 3.57725 8.44116 3.65366C8.62379 3.73008 8.78931 3.84222 8.928 3.9835L10.85 5.9C10.9202 5.97119 11.0106 6.01921 11.1089 6.03762C11.2072 6.05603 11.3088 6.04395 11.4 6.003C11.659 5.8835 11.9245 5.7735 12.188 5.6765C12.2801 5.64164 12.3593 5.57948 12.4151 5.49834C12.4708 5.4172 12.5005 5.32095 12.5 5.2225V2.5C12.5 2.10218 12.658 1.72064 12.9393 1.43934C13.2206 1.15804 13.6022 1 14 1H18C18.3978 1 18.7794 1.15804 19.0607 1.43934C19.342 1.72064 19.5 2.10218 19.5 2.5V5.2165C19.4995 5.3165 19.5294 5.41428 19.5859 5.49682C19.6424 5.57935 19.7226 5.64273 19.816 5.6785C20.0775 5.775 20.3415 5.8845 20.5985 6.003C20.6898 6.04381 20.7913 6.05581 20.8896 6.03741C20.9879 6.01901 21.0782 5.97107 21.1485 5.9L23.0715 3.981C23.2099 3.84035 23.375 3.72877 23.5571 3.65278C23.7392 3.57679 23.9347 3.53794 24.132 3.5385C24.3299 3.53825 24.5259 3.57753 24.7084 3.65403C24.891 3.73053 25.0564 3.84272 25.195 3.984L28.0175 6.8065C28.1581 6.94547 28.2696 7.11098 28.3457 7.29343C28.4217 7.47587 28.4608 7.67161 28.4605 7.86927C28.4603 8.06694 28.4208 8.26258 28.3443 8.44485C28.2678 8.62711 28.1559 8.79236 28.015 8.931L26.1 10.85C26.0288 10.9202 25.9808 11.0106 25.9624 11.1089C25.944 11.2072 25.956 11.3088 25.997 11.4C26.1175 11.663 26.228 11.9285 26.324 12.1905C26.3588 12.2815 26.4205 12.3598 26.5009 12.4149C26.5813 12.47 26.6765 12.4993 26.774 12.499H29.5C29.8978 12.499 30.2794 12.657 30.5607 12.9383C30.842 13.2196 31 13.6012 31 13.999V17.999C31 18.3968 30.842 18.7784 30.5607 19.0597C30.2794 19.341 29.8978 19.499 29.5 19.499H26.7835C26.6836 19.4982 26.5859 19.5279 26.5034 19.5842C26.4209 19.6405 26.3576 19.7207 26.322 19.814C26.222 20.0807 26.1137 20.3418 25.997 20.5975C25.9561 20.6888 25.9441 20.7903 25.9625 20.8886C25.9809 20.9869 26.0289 21.0772 26.1 21.1475L28.019 23.071C28.1596 23.2098 28.2712 23.3752 28.3474 23.5575C28.4236 23.7398 28.4628 23.9354 28.4628 24.133C28.4628 24.3306 28.4236 24.5262 28.3474 24.7085C28.2712 24.8908 28.1596 25.0562 28.019 25.195L25.196 28.0175C25.0576 28.1581 24.8925 28.2698 24.7104 28.3458C24.5283 28.4219 24.3328 28.4609 24.1355 28.4605C23.9375 28.4609 23.7415 28.4218 23.5588 28.3453C23.3762 28.2689 23.2107 28.1568 23.072 28.0155L21.15 26.1C21.0796 26.0291 20.9893 25.9813 20.891 25.9629C20.7928 25.9445 20.6913 25.9564 20.6 25.997C20.344 26.115 20.0815 26.224 19.815 26.3225C19.722 26.3574 19.642 26.42 19.5857 26.5018C19.5294 26.5836 19.4995 26.6807 19.5 26.78V29.5C19.5 29.8978 19.342 30.2794 19.0607 30.5607C18.7794 30.842 18.3978 31 18 31ZM11.2045 24.9545C11.4171 24.9543 11.6273 25.0002 11.8205 25.089C12.0522 25.196 12.2888 25.2942 12.5305 25.3835C12.8155 25.4903 13.061 25.6817 13.2342 25.9318C13.4075 26.182 13.5002 26.4792 13.5 26.7835V29.5C13.5 29.6326 13.5527 29.7598 13.6464 29.8536C13.7402 29.9473 13.8674 30 14 30H18C18.1326 30 18.2598 29.9473 18.3536 29.8536C18.4473 29.7598 18.5 29.6326 18.5 29.5V26.78C18.4998 26.4765 18.5924 26.1802 18.7653 25.9308C18.9382 25.6814 19.1832 25.4908 19.4675 25.3845C19.709 25.295 19.947 25.1965 20.1795 25.089C20.4565 24.9632 20.7652 24.9249 21.0645 24.979C21.3639 25.0331 21.6396 25.1772 21.855 25.392L23.778 27.311C23.824 27.3585 23.8791 27.3963 23.94 27.422C24.0009 27.4478 24.0664 27.4611 24.1325 27.461C24.1979 27.4605 24.2625 27.4469 24.3226 27.4212C24.3827 27.3954 24.437 27.358 24.4825 27.311L27.31 24.4835C27.3573 24.4378 27.3949 24.3831 27.4207 24.3226C27.4464 24.2621 27.4598 24.197 27.4601 24.1313C27.4603 24.0655 27.4474 24.0004 27.422 23.9397C27.3967 23.879 27.3594 23.8241 27.3125 23.778L25.392 21.855C25.177 21.6398 25.0329 21.3642 24.9787 21.0649C24.9246 20.7656 24.9631 20.4569 25.089 20.18C25.196 19.9467 25.2942 19.7097 25.3835 19.469C25.4904 19.1841 25.6818 18.9387 25.932 18.7655C26.1821 18.5924 26.4792 18.4997 26.7835 18.5H29.5C29.6326 18.5 29.7598 18.4473 29.8536 18.3536C29.9473 18.2598 30 18.1326 30 18V14C30 13.8674 29.9473 13.7402 29.8536 13.6464C29.7598 13.5527 29.6326 13.5 29.5 13.5H26.7755C26.4733 13.5002 26.1783 13.408 25.9299 13.2359C25.6815 13.0638 25.4915 12.82 25.3855 12.537C25.2958 12.293 25.197 12.0538 25.089 11.8195C24.9631 11.5427 24.9247 11.2341 24.9788 10.9349C25.0329 10.6357 25.1771 10.3601 25.392 10.145L27.311 8.2215C27.3584 8.17581 27.3961 8.12107 27.422 8.06052C27.4479 7.99998 27.4613 7.93486 27.4615 7.86903C27.4618 7.80319 27.4488 7.73798 27.4234 7.67726C27.3979 7.61653 27.3606 7.56153 27.3135 7.5155L24.4865 4.6885C24.4405 4.64121 24.3856 4.60358 24.3249 4.57782C24.2642 4.55207 24.1989 4.5387 24.133 4.5385C24.0676 4.5388 24.0029 4.55223 23.9428 4.57799C23.8827 4.60376 23.8283 4.64134 23.783 4.6885L21.855 6.608C21.6398 6.82305 21.364 6.96729 21.0646 7.02144C20.7652 7.07558 20.4564 7.03705 20.1795 6.911C19.9482 6.804 19.7115 6.70583 19.4695 6.6165C19.1846 6.5096 18.9391 6.31827 18.7658 6.06809C18.5926 5.81791 18.4998 5.52081 18.5 5.2165V2.5C18.5 2.36739 18.4473 2.24021 18.3536 2.14645C18.2598 2.05268 18.1326 2 18 2H14C13.8674 2 13.7402 2.05268 13.6464 2.14645C13.5527 2.24021 13.5 2.36739 13.5 2.5V5.224C13.5002 5.52679 13.4079 5.82243 13.2355 6.0713C13.063 6.32018 12.8186 6.51041 12.535 6.6165C12.292 6.70583 12.0538 6.8045 11.8205 6.9125C11.5436 7.03848 11.2348 7.07697 10.9354 7.02283C10.636 6.96869 10.3603 6.82449 10.145 6.6095L8.222 4.689C8.17599 4.6415 8.1209 4.60374 8.05999 4.57797C7.99909 4.5522 7.93363 4.53895 7.8675 4.539C7.8023 4.53919 7.73779 4.55233 7.67771 4.57765C7.61763 4.60297 7.56317 4.63997 7.5175 4.6865L4.6885 7.5135C4.64124 7.55922 4.60362 7.61394 4.57784 7.67443C4.55207 7.73493 4.53867 7.79997 4.53844 7.86572C4.53821 7.93148 4.55114 7.99661 4.57649 8.05729C4.60183 8.11796 4.63907 8.17295 4.686 8.219L6.608 10.145C6.82295 10.3602 6.96713 10.6358 7.02127 10.9351C7.07541 11.2344 7.03694 11.5431 6.911 11.82C6.804 12.0533 6.70583 12.2903 6.6165 12.531C6.50958 12.8159 6.31823 13.0613 6.06805 13.2345C5.81786 13.4076 5.52077 13.5003 5.2165 13.5H2.5C2.36739 13.5 2.24021 13.5527 2.14645 13.6464C2.05268 13.7402 2 13.8674 2 14V18C2 18.1326 2.05268 18.2598 2.14645 18.3536C2.24021 18.4473 2.36739 18.5 2.5 18.5H5.2195C5.52388 18.4996 5.82111 18.5922 6.07134 18.7655C6.32157 18.9388 6.51284 19.1844 6.6195 19.4695C6.7085 19.7108 6.80667 19.9478 6.914 20.1805C7.0399 20.4573 7.07835 20.7659 7.0242 21.0651C6.97006 21.3643 6.82591 21.6399 6.611 21.855L4.689 23.7785C4.6416 23.8242 4.60386 23.8789 4.578 23.9395C4.55214 24 4.5387 24.0651 4.53847 24.131C4.53823 24.1968 4.55121 24.262 4.57664 24.3227C4.60207 24.3835 4.63943 24.4385 4.6865 24.4845L7.5135 27.3115C7.55946 27.3588 7.61441 27.3964 7.67511 27.4222C7.73582 27.4479 7.80106 27.4613 7.867 27.4615C7.93241 27.4612 7.9971 27.4478 8.05722 27.422C8.11734 27.3962 8.17167 27.3587 8.217 27.3115L10.143 25.39C10.4251 25.1099 10.8069 24.9533 11.2045 24.9545Z" fill="#931115"></path>
<path d="M16 23C14.6155 23 13.2622 22.5895 12.111 21.8203C10.9599 21.0511 10.0627 19.9579 9.53285 18.6788C9.00303 17.3997 8.86441 15.9922 9.13451 14.6344C9.4046 13.2765 10.0713 12.0292 11.0503 11.0503C12.0292 10.0713 13.2765 9.4046 14.6344 9.13451C15.9922 8.86441 17.3997 9.00303 18.6788 9.53285C19.9579 10.0627 21.0511 10.9599 21.8203 12.111C22.5895 13.2622 23 14.6155 23 16C22.998 17.8559 22.2599 19.6352 20.9476 20.9476C19.6352 22.2599 17.8559 22.998 16 23ZM16 10C14.8133 10 13.6533 10.3519 12.6666 11.0112C11.6799 11.6705 10.9109 12.6075 10.4567 13.7039C10.0026 14.8003 9.88378 16.0067 10.1153 17.1705C10.3468 18.3344 10.9182 19.4035 11.7574 20.2426C12.5965 21.0818 13.6656 21.6532 14.8295 21.8847C15.9933 22.1162 17.1997 21.9974 18.2961 21.5433C19.3925 21.0892 20.3295 20.3201 20.9888 19.3334C21.6481 18.3467 22 17.1867 22 16C21.9983 14.4092 21.3656 12.8841 20.2407 11.7593C19.1159 10.6344 17.5908 10.0017 16 10Z" fill="#931115"></path>
</svg>