<svg width="32" height="32" viewBox="0 0 32 32" fill="none" xmlns="http://www.w3.org/2000/svg">
<path d="M16 1.5C13.1322 1.5 10.3288 2.35041 7.94424 3.94369C5.55973 5.53697 3.70122 7.80156 2.60375 10.4511C1.50628 13.1006 1.21913 16.0161 1.77862 18.8288C2.33811 21.6415 3.7191 24.2252 5.74696 26.253C7.77482 28.2809 10.3585 29.6619 13.1712 30.2214C15.9839 30.7809 18.8994 30.4937 21.5489 29.3963C24.1984 28.2988 26.463 26.4403 28.0563 24.0558C29.6496 21.6713 30.5 18.8678 30.5 16C30.5 12.1544 28.9723 8.46623 26.2531 5.74695C23.5338 3.02767 19.8456 1.5 16 1.5ZM16 27.5C13.7255 27.5 11.5021 26.8255 9.61095 25.5619C7.71978 24.2983 6.2458 22.5022 5.37539 20.4009C4.50498 18.2995 4.27725 15.9872 4.72098 13.7565C5.16471 11.5257 6.25997 9.47658 7.86828 7.86827C9.47658 6.25997 11.5257 5.1647 13.7565 4.72097C15.9872 4.27724 18.2995 4.50498 20.4009 5.37539C22.5022 6.24579 24.2983 7.71978 25.5619 9.61094C26.8255 11.5021 27.5 13.7255 27.5 16C27.4966 19.0489 26.2839 21.972 24.1279 24.1279C21.972 26.2839 19.0489 27.4966 16 27.5Z" fill="#F4E2E3"></path>
<path d="M9.75751 22.2423L18 17.9998L22.2425 9.75732L14 13.9998L9.75751 22.2423ZM16 14.9998C16.1978 14.9998 16.3911 15.0585 16.5556 15.1684C16.72 15.2782 16.8482 15.4344 16.9239 15.6171C16.9996 15.7999 17.0194 16.0009 16.9808 16.1949C16.9422 16.3889 16.847 16.5671 16.7071 16.7069C16.5673 16.8468 16.3891 16.942 16.1951 16.9806C16.0011 17.0192 15.8 16.9994 15.6173 16.9237C15.4346 16.848 15.2784 16.7198 15.1685 16.5554C15.0587 16.3909 15 16.1976 15 15.9998C15 15.7346 15.1054 15.4803 15.2929 15.2927C15.4804 15.1052 15.7348 14.9998 16 14.9998Z" fill="#F4E2E3"></path>
<path d="M16 1C13.0333 1 10.1332 1.87973 7.66645 3.52796C5.19972 5.17618 3.27713 7.51886 2.14181 10.2597C1.0065 13.0006 0.709449 16.0166 1.28823 18.9264C1.86701 21.8361 3.29562 24.5088 5.3934 26.6066C7.49119 28.7044 10.1639 30.133 13.0737 30.7118C15.9834 31.2906 18.9994 30.9935 21.7403 29.8582C24.4812 28.7229 26.8238 26.8003 28.4721 24.3336C30.1203 21.8668 31 18.9667 31 16C30.9955 12.0231 29.4137 8.21044 26.6016 5.39837C23.7896 2.5863 19.9769 1.0045 16 1ZM16 30C13.2311 30 10.5243 29.1789 8.22202 27.6406C5.91973 26.1022 4.12532 23.9157 3.06569 21.3576C2.00607 18.7994 1.72882 15.9845 2.26901 13.2687C2.80921 10.553 4.14258 8.05844 6.10051 6.1005C8.05845 4.14257 10.553 2.8092 13.2687 2.26901C15.9845 1.72881 18.7994 2.00606 21.3576 3.06569C23.9157 4.12531 26.1022 5.91973 27.6406 8.22202C29.1789 10.5243 30 13.2311 30 16C29.9958 19.7117 28.5194 23.2702 25.8948 25.8948C23.2702 28.5194 19.7117 29.9958 16 30Z" fill="#931115"></path>
<path d="M16 4C13.6266 4 11.3066 4.70379 9.33316 6.02236C7.35977 7.34094 5.8217 9.21509 4.91345 11.4078C4.0052 13.6005 3.76756 16.0133 4.23058 18.3411C4.6936 20.6689 5.83649 22.8071 7.51472 24.4853C9.19295 26.1635 11.3312 27.3064 13.6589 27.7694C15.9867 28.2324 18.3995 27.9948 20.5922 27.0866C22.7849 26.1783 24.6591 24.6402 25.9776 22.6668C27.2962 20.6935 28 18.3734 28 16C27.9963 12.8185 26.7308 9.76844 24.4812 7.51881C22.2316 5.26918 19.1815 4.00371 16 4ZM16 27C13.8244 27 11.6977 26.3549 9.88873 25.1462C8.07979 23.9375 6.66989 22.2195 5.83733 20.2095C5.00477 18.1995 4.78693 15.9878 5.21137 13.854C5.6358 11.7202 6.68345 9.7602 8.22183 8.22183C9.76021 6.68345 11.7202 5.6358 13.854 5.21136C15.9878 4.78692 18.1995 5.00476 20.2095 5.83733C22.2195 6.66989 23.9375 8.07979 25.1462 9.88873C26.3549 11.6977 27 13.8244 27 16C26.9967 18.9164 25.8367 21.7123 23.7745 23.7745C21.7123 25.8367 18.9164 26.9967 16 27Z" fill="#931115"></path>
<path d="M16 9C16.1326 9 16.2598 8.94732 16.3536 8.85355C16.4473 8.75979 16.5 8.63261 16.5 8.5V6.5C16.5 6.36739 16.4473 6.24021 16.3536 6.14645C16.2598 6.05268 16.1326 6 16 6C15.8674 6 15.7402 6.05268 15.6464 6.14645C15.5527 6.24021 15.5 6.36739 15.5 6.5V8.5C15.5 8.63261 15.5527 8.75979 15.6464 8.85355C15.7402 8.94732 15.8674 9 16 9Z" fill="#931115"></path>
<path d="M8.5 15.5H6.5C6.36739 15.5 6.24021 15.5527 6.14645 15.6464C6.05268 15.7402 6 15.8674 6 16C6 16.1326 6.05268 16.2598 6.14645 16.3536C6.24021 16.4473 6.36739 16.5 6.5 16.5H8.5C8.63261 16.5 8.75979 16.4473 8.85355 16.3536C8.94732 16.2598 9 16.1326 9 16C9 15.8674 8.94732 15.7402 8.85355 15.6464C8.75979 15.5527 8.63261 15.5 8.5 15.5Z" fill="#931115"></path>
<path d="M16 23C15.8674 23 15.7402 23.0527 15.6464 23.1464C15.5527 23.2402 15.5 23.3674 15.5 23.5V25.5C15.5 25.6326 15.5527 25.7598 15.6464 25.8536C15.7402 25.9473 15.8674 26 16 26C16.1326 26 16.2598 25.9473 16.3536 25.8536C16.4473 25.7598 16.5 25.6326 16.5 25.5V23.5C16.5 23.3674 16.4473 23.2402 16.3536 23.1464C16.2598 23.0527 16.1326 23 16 23Z" fill="#931115"></path>
<path d="M25.5 15.5H23.5C23.3674 15.5 23.2402 15.5527 23.1464 15.6464C23.0527 15.7402 23 15.8674 23 16C23 16.1326 23.0527 16.2598 23.1464 16.3536C23.2402 16.4473 23.3674 16.5 23.5 16.5H25.5C25.6326 16.5 25.7598 16.4473 25.8536 16.3536C25.9473 16.2598 26 16.1326 26 16C26 15.8674 25.9473 15.7402 25.8536 15.6464C25.7598 15.5527 25.6326 15.5 25.5 15.5Z" fill="#931115"></path>
<path d="M22.014 9.31239L13.771 13.5554C13.6785 13.603 13.6032 13.6784 13.5555 13.7709L9.31251 22.0139C9.26396 22.1081 9.2466 22.2153 9.26294 22.32C9.27927 22.4247 9.32846 22.5215 9.40341 22.5965C9.47835 22.6714 9.57516 22.7206 9.67988 22.737C9.7846 22.7533 9.8918 22.7359 9.98601 22.6874L18.229 18.4444C18.3215 18.3967 18.3968 18.3214 18.4445 18.2289L22.6875 9.98589C22.7361 9.89168 22.7534 9.78448 22.7371 9.67976C22.7207 9.57504 22.6716 9.47823 22.5966 9.40328C22.5217 9.32834 22.4249 9.27915 22.3201 9.26281C22.2154 9.24648 22.1082 9.26383 22.014 9.31239ZM17.6285 17.6284L10.9165 21.0834L14.3715 14.3714L21.0835 10.9164L17.6285 17.6284Z" fill="#931115"></path>
<path d="M16 17.5C16.2967 17.5 16.5867 17.412 16.8334 17.2472C17.08 17.0824 17.2723 16.8481 17.3858 16.574C17.4993 16.2999 17.5291 15.9983 17.4712 15.7074C17.4133 15.4164 17.2704 15.1491 17.0607 14.9393C16.8509 14.7296 16.5836 14.5867 16.2926 14.5288C16.0017 14.4709 15.7001 14.5006 15.426 14.6142C15.1519 14.7277 14.9176 14.92 14.7528 15.1666C14.588 15.4133 14.5 15.7033 14.5 16C14.5 16.3978 14.658 16.7794 14.9393 17.0607C15.2206 17.342 15.6022 17.5 16 17.5ZM16 15.5C16.0989 15.5 16.1956 15.5293 16.2778 15.5843C16.36 15.6392 16.4241 15.7173 16.4619 15.8087C16.4998 15.9 16.5097 16.0006 16.4904 16.0975C16.4711 16.1945 16.4235 16.2836 16.3536 16.3536C16.2836 16.4235 16.1945 16.4711 16.0975 16.4904C16.0006 16.5097 15.9 16.4998 15.8087 16.4619C15.7173 16.4241 15.6392 16.36 15.5843 16.2778C15.5293 16.1956 15.5 16.0989 15.5 16C15.5 15.8674 15.5527 15.7402 15.6464 15.6464C15.7402 15.5527 15.8674 15.5 16 15.5Z" fill="#931115"></path>
</svg>