<svg width="32" height="29" viewBox="0 0 32 29" fill="none" xmlns="http://www.w3.org/2000/svg">
<path d="M12.0668 28.9989C10.5357 28.973 9.04361 28.7529 7.5904 28.3384C6.16315 27.9499 4.87862 27.3412 3.73681 26.5123C2.59501 25.6575 1.68676 24.5826 1.01205 23.2875C0.337351 21.9923 0 20.4511 0 18.6639C0 17.4465 0.233551 16.3068 0.700653 15.2448C1.1937 14.1569 1.90733 13.2503 2.84153 12.525C3.80169 11.7738 4.99539 11.2817 6.42265 11.0486V10.932C5.56629 10.2844 4.94349 9.58508 4.55424 8.83391C4.16499 8.08274 3.97036 7.26681 3.97036 6.38613C3.97036 4.70247 4.58019 3.34259 5.79985 2.30649C7.04545 1.24449 8.77113 0.713495 10.9769 0.713495C11.937 0.713495 12.8323 0.855958 13.6627 1.14088C14.4931 1.42581 15.1678 1.86615 15.6868 2.46191C16.2318 3.05766 16.5043 3.82178 16.5043 4.75427C16.5043 5.53135 16.2707 6.23071 15.8036 6.85237C15.3625 7.47403 14.7137 7.78486 13.8573 7.78486C13.2864 7.78486 12.8453 7.64239 12.5339 7.35747C12.2225 7.07254 12.0668 6.86532 12.0668 6.73581C12.0668 6.684 12.1706 6.5804 12.3782 6.42498C12.6117 6.24366 12.8323 6.01054 13.0399 5.72561C13.2475 5.41478 13.3513 5.0392 13.3513 4.59886C13.3513 3.82179 13.0788 3.21308 12.5339 2.77274C11.9889 2.3324 11.3272 2.11222 10.5487 2.11222C9.22526 2.11222 8.23915 2.51371 7.5904 3.31669C6.94165 4.09376 6.61727 5.00035 6.61727 6.03644C6.61727 7.92732 7.40875 9.30015 8.99171 10.1549H10.2762C10.5876 10.1549 10.8342 10.1808 11.0158 10.2326C11.2234 10.2844 11.3402 10.5694 11.3661 11.0874C11.3661 11.3205 11.3013 11.5407 11.1715 11.7479C11.0677 11.9292 10.8861 12.0199 10.6266 12.0199H9.26418C8.07048 12.1235 7.09735 12.4861 6.3448 13.1078C5.59224 13.7036 5.03432 14.4418 4.67102 15.3225C4.30771 16.2031 4.12606 17.1097 4.12606 18.0422C4.12606 19.7259 4.51532 21.1894 5.29382 22.4327C6.07232 23.676 7.14925 24.6344 8.5246 25.3079C9.92591 25.9554 11.5089 26.2792 13.2735 26.2792C15.1678 26.2792 16.8935 25.8907 18.4505 25.1136C20.0335 24.3365 21.292 23.2616 22.2263 21.8887C23.1864 20.49 23.6665 18.91 23.6665 17.1486C23.6665 16.2161 23.4848 15.3225 23.1215 14.4677C22.7842 13.6129 22.2652 12.9135 21.5645 12.3696C20.8639 11.8256 20.0075 11.5537 18.9955 11.5537C18.5803 11.5537 18.1002 11.6443 17.5552 11.8256C17.0362 12.007 16.5951 12.2919 16.2318 12.6804C15.8685 13.0431 15.6998 13.5222 15.7258 14.118C15.7517 14.4547 15.8685 14.7785 16.0761 15.0893C16.2837 15.3743 16.6081 15.5556 17.0492 15.6333C17.4904 15.6851 17.8796 15.6333 18.217 15.4779C18.5543 15.3225 18.8138 15.1541 18.9955 14.9728C19.2031 14.7915 19.3328 14.7008 19.3847 14.7008C19.5145 14.7267 19.6831 14.921 19.8907 15.2836C20.1243 15.6462 20.2021 16.0995 20.1243 16.6435C20.0205 17.3429 19.7091 17.8868 19.1901 18.2753C18.697 18.638 18.1002 18.8193 17.3995 18.8193C16.4134 18.8193 15.622 18.4308 15.0251 17.6537C14.4283 16.8507 14.1298 15.8276 14.1298 14.5842C14.1298 13.2373 14.3764 12.1365 14.8694 11.2817C15.3884 10.4269 16.0631 9.75344 16.8935 9.2613C17.7499 8.76915 18.697 8.40652 19.735 8.17339C20.7731 7.91437 21.824 7.7201 22.888 7.59059C23.9779 7.46108 25.0159 7.34452 26.002 7.24091C26.9881 7.11139 27.8315 6.93008 28.5321 6.69696C29.103 6.48974 29.5831 6.19186 29.9724 5.80332C30.3616 5.41479 30.5433 4.97444 30.5173 4.4823C30.4914 4.17147 30.3746 3.89949 30.167 3.66637C29.9594 3.43325 29.5961 3.27783 29.0771 3.20013C28.6359 3.14832 28.2467 3.20013 27.9093 3.35554C27.572 3.51096 27.2995 3.67932 27.0919 3.86064C26.9102 4.04196 26.7935 4.13262 26.7416 4.13262C26.6378 4.10671 26.4691 3.91244 26.2355 3.54981C26.002 3.18718 25.9241 2.73388 26.002 2.18993C26.1058 1.49057 26.3912 0.972518 26.8583 0.635786C27.3254 0.273152 27.8574 0.0659332 28.4543 0.014129C29.0771 -0.0376767 29.661 0.0529814 30.2059 0.286103C30.9066 0.622835 31.3866 1.14088 31.6461 1.84025C31.9056 2.51371 32.0224 3.18718 31.9965 3.86064C31.9705 5.28527 31.4904 6.50269 30.5562 7.51288C29.648 8.52308 28.4413 9.30015 26.9362 9.8441C25.457 10.3622 23.8352 10.6212 22.0706 10.6212C23.1345 11.5278 23.9519 12.525 24.5228 13.6129C25.1197 14.7008 25.4181 15.8923 25.4181 17.1874C25.4181 19.6482 24.8213 21.7722 23.6276 23.5594C22.4339 25.3208 20.8249 26.6807 18.8008 27.6391C16.8027 28.5716 14.558 29.0249 12.0668 28.9989Z" fill="#931115"></path>
</svg>